<svg width="16" height="20" viewBox="0 0 16 20" fill="none" xmlns="http://www.w3.org/2000/svg">
<path d="M13 7.99996V4.99996C13 4.99996 13 -3.55439e-05 8 -3.55439e-05C6.83157 -0.0738231 5.67856 0.297777 4.77311 1.03995C3.86765 1.78213 3.27698 2.83978 3.12 3.99996H5.12C5.31 2.92996 6 1.99996 8 1.99996C11 1.99996 11 3.99996 11 5.49996V7.99996H1.93C1.41813 7.99996 0.927229 8.2033 0.565284 8.56525C0.203339 8.92719 0 9.4181 0 9.92997V18.08C0.00264321 18.5901 0.207148 19.0784 0.568807 19.4382C0.930466 19.798 1.41986 20 1.93 20H14.07C14.5819 20 15.0728 19.7966 15.4347 19.4347C15.7967 19.0727 16 18.5818 16 18.07V9.92997C16 9.4181 15.7967 8.92719 15.4347 8.56525C15.0728 8.2033 14.5819 7.99996 14.07 7.99996H13ZM8 16C7.60444 16 7.21776 15.8827 6.88886 15.6629C6.55996 15.4431 6.30362 15.1308 6.15224 14.7653C6.00087 14.3999 5.96126 13.9977 6.03843 13.6098C6.1156 13.2218 6.30608 12.8655 6.58579 12.5858C6.86549 12.306 7.22186 12.1156 7.60982 12.0384C7.99778 11.9612 8.39991 12.0008 8.76537 12.1522C9.13082 12.3036 9.44318 12.5599 9.66294 12.8888C9.8827 13.2177 10 13.6044 10 14C10 14.5304 9.78929 15.0391 9.41421 15.4142C9.03914 15.7893 8.53043 16 8 16Z" fill="#363636"/>
</svg>
