<svg width="23" height="14" viewBox="0 0 23 14" fill="none" xmlns="http://www.w3.org/2000/svg">
<path d="M5.11111 2.8V0H23V2.8H5.11111ZM5.11111 8.39999V5.59999H23V8.39999H5.11111ZM5.11111 14V11.2H23V14H5.11111ZM1.27778 2.8C0.915745 2.8 0.612486 2.6656 0.368005 2.3968C0.123523 2.128 0.000856258 1.79573 4.40612e-06 1.4C-0.000847446 1.00427 0.121819 0.671999 0.368005 0.4032C0.61419 0.1344 0.917449 0 1.27778 0C1.63812 0 1.9418 0.1344 2.18884 0.4032C2.43587 0.671999 2.55812 1.00427 2.55556 1.4C2.553 1.79573 2.43034 2.12846 2.18756 2.3982C1.94478 2.66793 1.64152 2.80186 1.27778 2.8ZM1.27778 8.39999C0.915745 8.39999 0.612486 8.26559 0.368005 7.99679C0.123523 7.72799 0.000856258 7.39572 4.40612e-06 6.99999C-0.000847446 6.60426 0.121819 6.27199 0.368005 6.00319C0.61419 5.73439 0.917449 5.59999 1.27778 5.59999C1.63812 5.59999 1.9418 5.73439 2.18884 6.00319C2.43587 6.27199 2.55812 6.60426 2.55556 6.99999C2.553 7.39572 2.43034 7.72846 2.18756 7.99819C1.94478 8.26792 1.64152 8.40186 1.27778 8.39999ZM1.27778 14C0.915745 14 0.612486 13.8656 0.368005 13.5968C0.123523 13.328 0.000856258 12.9957 4.40612e-06 12.6C-0.000847446 12.2043 0.121819 11.872 0.368005 11.6032C0.61419 11.3344 0.917449 11.2 1.27778 11.2C1.63812 11.2 1.9418 11.3344 2.18884 11.6032C2.43587 11.872 2.55812 12.2043 2.55556 12.6C2.553 12.9957 2.43034 13.3284 2.18756 13.5982C1.94478 13.8679 1.64152 14.0018 1.27778 14Z" fill="#363636"/>
</svg>
