<svg width="14" height="9" viewBox="0 0 14 9" fill="none" xmlns="http://www.w3.org/2000/svg">
<path d="M9.29114 4.22885C10.242 4.22885 11.0038 3.46131 11.0038 2.51047C11.0038 1.55963 10.242 0.792084 9.29114 0.792084C8.3403 0.792084 7.57276 1.55963 7.57276 2.51047C7.57276 3.46131 8.3403 4.22885 9.29114 4.22885ZM4.70878 4.22885C5.65962 4.22885 6.42144 3.46131 6.42144 2.51047C6.42144 1.55963 5.65962 0.792084 4.70878 0.792084C3.75794 0.792084 2.9904 1.55963 2.9904 2.51047C2.9904 3.46131 3.75794 4.22885 4.70878 4.22885ZM4.70878 5.37444C3.37417 5.37444 0.699219 6.04461 0.699219 7.37922V8.81121H8.71835V7.37922C8.71835 6.04461 6.04339 5.37444 4.70878 5.37444ZM9.29114 5.37444C9.12503 5.37444 8.93601 5.3859 8.73553 5.40308C9.39997 5.88423 9.86394 6.53149 9.86394 7.37922V8.81121H13.3007V7.37922C13.3007 6.04461 10.6258 5.37444 9.29114 5.37444Z" fill="#363636"/>
</svg>
