<svg width="39" height="39" viewBox="0 0 39 39" fill="none" xmlns="http://www.w3.org/2000/svg">
<path d="M19.5 12V19.5L23.25 23.25" stroke="white" stroke-width="4.66667" stroke-linecap="round" stroke-linejoin="round"/>
<path d="M2.71875 17.625C3.13892 13.5001 5.06299 9.67428 8.12387 6.87744C11.1848 4.0806 15.1682 2.50854 19.3141 2.46118C23.4601 2.41383 27.4784 3.8945 30.6024 6.62069C33.7263 9.34689 35.7373 13.1278 36.2516 17.242C36.7658 21.3562 35.7474 25.5158 33.3907 28.9271C31.0339 32.3383 27.5037 34.7626 23.4736 35.7372C19.4436 36.7119 15.1958 36.1687 11.5406 34.2114C7.88547 32.254 5.07885 29.0196 3.65625 25.125M2.71875 34.5V25.125H12.0937" stroke="white" stroke-width="4.66667" stroke-linecap="round" stroke-linejoin="round"/>
</svg>
